<svg fill="none" height="24" viewBox="0 0 24 24" width="24" xmlns="http://www.w3.org/2000/svg"><g fill="#1c274c"><path d="m9.60751 1.51737c.77009-.17508 1.57099-.26737 2.39249-.26737 5.9371 0 10.75 4.81294 10.75 10.75 0 5.9371-4.8129 10.75-10.75 10.75-.8215 0-1.6224-.0923-2.39249-.2674-.40391-.0918-.6569-.4937-.56507-.8976s.4937-.6569.89761-.565c.66175.1504 1.35105.23 2.05995.23 5.1086 0 9.25-4.1414 9.25-9.25 0-5.10863-4.1414-9.25-9.25-9.25-.7089 0-1.3982.0796-2.05995.23004-.40391.09183-.80578-.16116-.89761-.56507s.16116-.80578.56507-.8976z"/><path d="m7.31372 3.13198c.22071.35052.11547.81359-.23504 1.03429-1.17519.73996-2.17245 1.73722-2.91241 2.91241-.22071.35051-.68377.45575-1.03429.23504-.35052-.2207-.45575-.68377-.23505-1.03428.85953-1.36508 2.01743-2.52298 3.3825-3.38251.35052-.2207.81359-.11547 1.03429.23505z"/><path d="m2.98004 9.94005c.09183-.40391-.16116-.80578-.56507-.89761s-.80578.16116-.8976.56507c-.17508.77009-.26737 1.57099-.26737 2.39249s.09229 1.6224.26737 2.3925c.09182.4039.49369.6569.8976.5651.40391-.0919.6569-.4937.56507-.8976-.15044-.6618-.23004-1.3511-.23004-2.06s.0796-1.3982.23004-2.05995z"/><path d="m3.13198 16.6863c.35052-.2207.81359-.1155 1.03429.235.73996 1.1752 1.73722 2.1725 2.91241 2.9124.35051.2207.45575.6838.23504 1.0343-.2207.3505-.68377.4558-1.03428.2351-1.36508-.8596-2.52298-2.0175-3.38251-3.3825-.2207-.3506-.11547-.8136.23505-1.0343z"/><path d="m15.4137 10.941c.7817.4616.7817 1.6564 0 2.118l-4.7202 2.7868c-.75979.4486-1.6935-.1353-1.6935-1.059v-5.57364c0-.92369.93371-1.50755 1.6935-1.05897z"/></g></svg>